<?xml version="1.0" encoding="UTF-8"?>
<svg version="1.1" xmlns="http://www.w3.org/2000/svg" width="415" height="465">
<path d="M0 0 C136.95 0 273.9 0 415 0 C415 153.45 415 306.9 415 465 C278.05 465 141.1 465 0 465 C0 311.55 0 158.1 0 0 Z " fill="#F8F7F5" transform="translate(0,0)"/>
<path d="M0 0 C0 4.07814888 -1.55476645 5.2262573 -4.125 8.375 C-29.41950607 40.27510717 -45.12752362 71.52344289 -42 113 C-41.19705816 118.31593755 -40.1233465 123.55648762 -39 128.8125 C-31.4230339 164.52976609 -36.22269486 198.51599604 -55.4375 229.8125 C-67.66532577 248.29256247 -84.04842627 263.29464109 -104 273 C-104.8559375 273.42667969 -105.711875 273.85335938 -106.59375 274.29296875 C-135.76637196 288.23576601 -168.9942768 290.38310563 -199.76171875 280.07470703 C-209.22777052 276.57737143 -218.32753927 272.15783191 -227 267 C-227.92039063 266.49082031 -228.84078125 265.98164063 -229.7890625 265.45703125 C-230.51867187 264.97621094 -231.24828125 264.49539063 -232 264 C-232 263.34 -232 262.68 -232 262 C-227.59614095 259.86731114 -223.18531235 257.75003743 -218.76757812 255.64624023 C-217.26820996 254.92964944 -215.77076981 254.20900903 -214.27539062 253.48413086 C-212.11572274 252.43813171 -209.94935741 251.40727654 -207.78125 250.37890625 C-207.12257935 250.05596085 -206.46390869 249.73301544 -205.78527832 249.40028381 C-200.17516687 246.7687235 -194.8921617 245.35122701 -188.69140625 246.7421875 C-187.65886719 247.11601562 -186.62632812 247.48984375 -185.5625 247.875 C-164.00777665 255.59045792 -138.58616025 251.34629434 -118.32519531 242.13964844 C-112.74172265 239.40301988 -107.83826857 235.90010015 -103 232 C-102.11054688 231.29101562 -101.22109375 230.58203125 -100.3046875 229.8515625 C-83.50831893 215.623446 -72.69550628 193.80909627 -70 172 C-69.16496725 157.09889864 -68.42908826 135.52317497 -78.40625 123.2734375 C-80.63531299 121.49237246 -82.84423796 120.92717637 -85.66015625 120.703125 C-90.87458746 121.36472228 -94.90485471 124.92116814 -99 128 C-99.6098877 128.45745605 -100.21977539 128.91491211 -100.84814453 129.38623047 C-104.38966898 132.05796846 -107.90594818 134.76116 -111.4140625 137.4765625 C-116.01864918 141.03115342 -120.68636943 144.49482959 -125.375 147.9375 C-126.16583984 148.51830322 -126.95667969 149.09910645 -127.77148438 149.69750977 C-129.37828276 150.87670821 -130.98537971 152.05549993 -132.59277344 153.23388672 C-136.56665138 156.14940731 -140.53296477 159.07517969 -144.5 162 C-146.08329651 163.16671664 -147.66662986 164.33338329 -149.25 165.5 C-150.03375 166.0775 -150.8175 166.655 -151.625 167.25 C-158.75 172.5 -158.75 172.5 -161.12792969 174.25195312 C-162.70175959 175.41175367 -164.27532991 176.57190655 -165.84863281 177.73242188 C-169.95024511 180.75716956 -174.0569913 183.77457579 -178.171875 186.78125 C-179.44708008 187.71517578 -179.44708008 187.71517578 -180.74804688 188.66796875 C-182.36225171 189.8499548 -183.97802494 191.02980333 -185.59570312 192.20703125 C-190.24892789 195.61858187 -194.66439232 199.19200595 -199 203 C-199.66 202.67 -200.32 202.34 -201 202 C-200.38800467 201.38892647 -199.77600935 200.77785294 -199.14546871 200.14826202 C-184.23559904 185.26050307 -169.32851815 170.36995676 -154.42451382 155.47632599 C-147.21690626 148.2738687 -140.00836735 141.07234827 -132.79760742 133.87304688 C-126.51071164 127.59613674 -120.22559189 121.31745455 -113.94257408 115.03666258 C-110.61754393 111.71293295 -107.2916477 108.39008077 -103.96362114 105.0693512 C-100.82687318 101.93942472 -97.69251745 98.807122 -94.55992699 95.67303467 C-93.41399298 94.52737424 -92.26721118 93.38256102 -91.11948776 92.23869324 C-85.7247495 86.86118009 -80.37684727 81.48769585 -75.44587231 75.67326736 C-72.82862988 72.6444063 -69.98257304 69.83991214 -67.1484375 67.015625 C-66.5265152 66.39274597 -65.9045929 65.76986694 -65.26382446 65.12811279 C-63.96259171 63.82620578 -62.66012042 62.52553555 -61.35644531 61.22607422 C-59.36927645 59.24429197 -57.38754247 57.25718657 -55.40625 55.26953125 C-54.13313323 53.99707486 -52.85970651 52.72492848 -51.5859375 51.453125 C-50.99936371 50.86452698 -50.41278992 50.27592896 -49.80844116 49.66949463 C-47.45343614 47.32780193 -45.1619079 45.12455437 -42.52587891 43.09667969 C-39.62045683 40.68494908 -37.32284074 37.9992912 -34.87228394 35.13671875 C-31.77313199 31.59985346 -28.43411525 28.31134558 -25.09765625 25 C-24.3750914 24.2788501 -23.65252655 23.5577002 -22.9080658 22.81469727 C-20.62857396 20.54074585 -18.3456076 18.27032046 -16.0625 16 C-14.50432494 14.44684765 -12.94638007 12.89346433 -11.38867188 11.33984375 C-7.59510241 7.55722414 -3.79868385 3.7774831 0 0 Z " fill="#3B393A" transform="translate(376,52)"/>
<path d="M0 0 C0.68320312 0.56976563 1.36640625 1.13953125 2.0703125 1.7265625 C2.0703125 2.7165625 2.0703125 3.7065625 2.0703125 4.7265625 C-2.55416759 6.84884407 -7.18066639 8.96663735 -11.80908203 11.08032227 C-13.38288567 11.79979851 -14.95613356 12.52049175 -16.52880859 13.24243164 C-18.79118692 14.28072466 -21.05553664 15.31460527 -23.3203125 16.34765625 C-24.02150208 16.67060165 -24.72269165 16.99354706 -25.44512939 17.32627869 C-33.67593384 21.06832366 -33.67593384 21.06832366 -37.5234375 20.01953125 C-38.4825 19.65472656 -39.4415625 19.28992188 -40.4296875 18.9140625 C-61.85310517 11.47251478 -86.10293487 12.97625243 -106.62939453 22.63452148 C-109.79913052 24.22618339 -112.86336819 25.94200715 -115.9296875 27.7265625 C-116.79851562 28.231875 -117.66734375 28.7371875 -118.5625 29.2578125 C-138.32041572 41.64953665 -152.36074763 62.07753844 -157.7421875 84.6640625 C-160.92438991 99.61077081 -161.53403242 115.0294935 -156.9296875 129.7265625 C-156.56617188 130.89960938 -156.20265625 132.07265625 -155.828125 133.28125 C-151.54357606 146.13489682 -144.73804867 157.28259865 -134.9296875 166.7265625 C-136.22985266 169.62288124 -137.56479173 171.57850556 -139.90625 173.71484375 C-140.49051758 174.25270508 -141.07478516 174.79056641 -141.67675781 175.34472656 C-142.29647461 175.90385742 -142.91619141 176.46298828 -143.5546875 177.0390625 C-144.18987305 177.62010742 -144.82505859 178.20115234 -145.47949219 178.79980469 C-149.28281184 182.26885199 -153.11997024 185.69731738 -157.015625 189.0625 C-161.03796931 192.55947689 -164.97407729 196.15452661 -168.9296875 199.7265625 C-174.21227808 204.49690187 -179.50902885 209.24550657 -184.875 213.921875 C-188.92937753 217.48294423 -192.9248168 221.1100429 -196.9296875 224.7265625 C-206.41840791 233.29516457 -206.41840791 233.29516457 -210.8671875 237.1640625 C-214.09528262 239.97478775 -217.26707193 242.8423615 -220.4296875 245.7265625 C-226.46236616 251.22448848 -232.49458736 256.69914052 -238.9296875 261.7265625 C-237.23148728 257.65088196 -234.41275481 254.52589911 -231.5546875 251.2265625 C-231.02593018 250.61216309 -230.49717285 249.99776367 -229.95239258 249.36474609 C-225.85099832 244.65647886 -221.53434666 240.21859387 -217.08276367 235.84350586 C-213.82401735 232.63847219 -210.71270208 229.38010893 -207.76171875 225.890625 C-206.327155 224.19606569 -204.85915789 222.52979892 -203.37890625 220.875 C-192.67993057 208.80258314 -182.16006868 194.33670841 -180.9296875 177.7265625 C-180.878125 177.08847656 -180.8265625 176.45039063 -180.7734375 175.79296875 C-180.29766079 164.98887256 -183.73739968 154.82605998 -187.73046875 144.9453125 C-189.70127408 139.65559395 -190.83397165 134.25307934 -191.9296875 128.7265625 C-192.2390625 127.36724609 -192.2390625 127.36724609 -192.5546875 125.98046875 C-198.87766967 95.02420186 -189.72851117 63.07850996 -173.8046875 36.5625 C-170.54510075 31.63237505 -166.80104957 27.18290118 -162.9296875 22.7265625 C-162.24261719 21.89382812 -161.55554688 21.06109375 -160.84765625 20.203125 C-121.25089857 -26.37265305 -50.07077001 -31.11815119 0 0 Z " fill="#3B3A3A" transform="translate(284.9296875,108.2734375)"/>
<path d="M0 0 C0 3.7226489 -0.98537259 4.67462429 -3.25 7.5625 C-3.85328125 8.34753906 -4.4565625 9.13257813 -5.078125 9.94140625 C-7 12 -7 12 -8.7265625 12.74731445 C-12.11677187 14.61535185 -14.60783778 17.36382288 -17.296875 20.1015625 C-18.18732513 20.99625748 -18.18732513 20.99625748 -19.09576416 21.9090271 C-20.98526627 23.8096981 -22.86768392 25.71721474 -24.75 27.625 C-26.03209065 28.91712468 -27.31463761 30.20879676 -28.59765625 31.5 C-31.73708432 34.66144479 -34.87017801 37.8290461 -38 41 C-38 38 -38 38 -36.55737305 36.1966095 C-35.88230713 35.52820541 -35.20724121 34.85980133 -34.51171875 34.17114258 C-33.37053589 33.03029961 -33.37053589 33.03029961 -32.20629883 31.8664093 C-31.37509521 31.05068954 -30.5438916 30.23496979 -29.6875 29.39453125 C-28.84405029 28.55532639 -28.00060059 27.71612152 -27.1315918 26.85148621 C-24.42799842 24.1647262 -21.71417532 21.48856565 -19 18.8125 C-17.1685891 16.99612983 -15.33785091 15.1790811 -13.5078125 13.36132812 C-9.01299342 8.8996402 -4.50972499 4.44661823 0 0 Z M-45 45 C-44.34 45.33 -43.68 45.66 -43 46 C-54.55 57.55 -66.1 69.1 -78 81 C-78.66 80.67 -79.32 80.34 -80 80 C-68.45 68.45 -56.9 56.9 -45 45 Z " fill="#686767" transform="translate(376,52)"/>
<path d="M0 0 C0.99 0.33 1.98 0.66 3 1 C2.43410156 1.47050781 1.86820313 1.94101563 1.28515625 2.42578125 C0.55167969 3.04839844 -0.18179688 3.67101562 -0.9375 4.3125 C-1.66839844 4.92738281 -2.39929688 5.54226562 -3.15234375 6.17578125 C-5.23820366 7.95975519 -5.23820366 7.95975519 -6 11 C-7.9609375 12.82421875 -7.9609375 12.82421875 -10.375 14.6875 C-11.16648438 15.31011719 -11.95796875 15.93273437 -12.7734375 16.57421875 C-15 18 -15 18 -18 18 C-12.06 12.06 -6.12 6.12 0 0 Z " fill="#5B5A5A" transform="translate(193,236)"/>
</svg>
